<?xml version="1.0" encoding="UTF-8" standalone="no"?>
<!-- Generator: Adobe Illustrator 22.0.1, SVG Export Plug-In . SVG Version: 6.00 Build 0)  -->

<svg
   xmlns:dc="http://purl.org/dc/elements/1.1/"
   xmlns:cc="http://creativecommons.org/ns#"
   xmlns:rdf="http://www.w3.org/1999/02/22-rdf-syntax-ns#"
   xmlns:svg="http://www.w3.org/2000/svg"
   xmlns="http://www.w3.org/2000/svg"
   xmlns:sodipodi="http://sodipodi.sourceforge.net/DTD/sodipodi-0.dtd"
   xmlns:inkscape="http://www.inkscape.org/namespaces/inkscape"
   version="1.1"
   x="0px"
   y="0px"
   viewBox="0 0 595 110"
   style="enable-background:new 0 0 595 110;"
   xml:space="preserve"
   id="svg19"
   sodipodi:docname="senailab.svg"
   inkscape:version="0.92.1 r15371"><metadata
     id="metadata25"><rdf:RDF><cc:Work
         rdf:about=""><dc:format>image/svg+xml</dc:format><dc:type
           rdf:resource="http://purl.org/dc/dcmitype/StillImage" /></cc:Work></rdf:RDF></metadata><defs
     id="defs23" /><sodipodi:namedview
     pagecolor="#ffffff"
     bordercolor="#666666"
     borderopacity="1"
     objecttolerance="10"
     gridtolerance="10"
     guidetolerance="10"
     inkscape:pageopacity="0"
     inkscape:pageshadow="2"
     inkscape:window-width="1559"
     inkscape:window-height="828"
     id="namedview21"
     showgrid="false"
     inkscape:zoom="0.97687693"
     inkscape:cx="309.78952"
     inkscape:cy="48.657788"
     inkscape:window-x="11"
     inkscape:window-y="0"
     inkscape:window-maximized="0"
     inkscape:current-layer="svg19" /><style
     type="text/css"
     id="style2">
	.st0{fill:#005CAA;}
	.st1{fill:none;stroke:#FF0000;stroke-width:9.5;stroke-miterlimit:10;}
	.st2{fill:none;stroke:#FF0000;stroke-miterlimit:10;}
</style><g
     id="Camada_1"><g
       id="g74-6-4-0-5-8"><path
         id="path76-1-9-8-0-9"
         class="st0"
         d="M84,37.5c5.8-20.7-11-27-28.8-27c-18,0-37,5.6-42.3,25.9c-2,9.3,0.6,17.1,8.5,20.9    c16.9,8.2,35.1,5.7,32.6,17.4c-1.2,5.7-8.8,8.6-14.3,8.6c-8.6,0-13.6-4.4-11.7-12.5H4.3C-0.3,94.1,16,100,36,100    c19.9,0,39.5-8.6,43.4-26.7C84.3,50.1,63.7,48.7,50.1,45c-5.9-1.7-13.1-3.7-11.8-10c0.9-4.3,6.4-7.9,11.9-7.9c4,0,6.9,1,8.6,2.7    c1.8,1.8,2.3,4.3,1.5,7.6L84,37.5z M152.9,98.2l3.6-16.7h-41.6l3.9-18.2h38.3l3.5-16.7h-38.3l3.8-17.7h41.6l3.5-16.7h-65.4    L87.4,98.2L152.9,98.2z M166.3,98.2h21.4l14-65.8h0.2l15.2,65.8H250l18.3-85.9h-21.4l-13.6,63.8l-0.3,0.2l-15.2-64h-33.3    L166.3,98.2z M282.6,98.2l9.2-16.8h34.9l2.1,16.8h26.9L340,12.3h-29l-52.2,85.9H282.6z M301.4,64.8l19.3-35.7h0.4l3.3,35.7H301.4z     M388.5,98.2l18.3-85.9H383l-18.3,85.9H388.5z" /></g></g><g
     id="Camada_3"><line
       class="st1"
       x1="424"
       y1="98"
       x2="424"
       y2="12"
       id="line10"
       style="stroke:#e49f3b;stroke-opacity:1" /><path
       class="st1"
       d="M452,37h38c0,0,9,0,9,10s0,38,0,38s0,8-7,8s-39,0-39,0s-7-1-7-8s0-15,0-15s-1-9,10-9s36,0,36,0"
       id="path12"
       style="stroke:#e49f3b;stroke-opacity:1" /><path
       class="st2"
       d="M424,54"
       id="path14" /><path
       class="st1"
       d="M520,12l1,72c0,0-1,9,8,9s37,0,37,0s8,1,8-8s0-48,0-48s-1-8-7-3s-45,34-45,34"
       id="path16"
       style="stroke:#e49f3b;stroke-opacity:1" /></g></svg>