<?xml version="1.0" encoding="UTF-8" standalone="no"?>
<svg
   xmlns:dc="http://purl.org/dc/elements/1.1/"
   xmlns:cc="http://creativecommons.org/ns#"
   xmlns:rdf="http://www.w3.org/1999/02/22-rdf-syntax-ns#"
   xmlns:svg="http://www.w3.org/2000/svg"
   xmlns="http://www.w3.org/2000/svg"
   xmlns:sodipodi="http://sodipodi.sourceforge.net/DTD/sodipodi-0.dtd"
   xmlns:inkscape="http://www.inkscape.org/namespaces/inkscape"
   id="svg731"
   viewBox="0 0 180 39.999999"
   version="1.1"
   sodipodi:docname="senai.svg"
   width="180"
   height="40"
   inkscape:version="0.92.1 r15371">
  <metadata
     id="metadata38">
    <rdf:RDF>
      <cc:Work
         rdf:about="">
        <dc:format>image/svg+xml</dc:format>
        <dc:type
           rdf:resource="http://purl.org/dc/dcmitype/StillImage" />
        <dc:title>senai</dc:title>
      </cc:Work>
    </rdf:RDF>
  </metadata>
  <sodipodi:namedview
     pagecolor="#ffffff"
     bordercolor="#666666"
     borderopacity="1"
     objecttolerance="10"
     gridtolerance="10"
     guidetolerance="10"
     inkscape:pageopacity="0"
     inkscape:pageshadow="2"
     inkscape:window-width="1600"
     inkscape:window-height="837"
     id="namedview36"
     showgrid="false"
     inkscape:zoom="2.8284271"
     inkscape:cx="54.555527"
     inkscape:cy="106.38783"
     inkscape:window-x="-8"
     inkscape:window-y="-8"
     inkscape:window-maximized="1"
     inkscape:current-layer="svg731" />
  <defs
     id="defs4">
    <style
       id="style2">.cls-1{fill:none;}.cls-2{fill:#005caa;}</style>
  </defs>
  <title
     id="title6">senai</title>
  <g
     id="layer1"
     transform="translate(0,-4050.0601)">
    <rect
       id="rect246-1-2"
       class="cls-1"
       y="1031.49"
       width="10300.78"
       height="2640.78"
       x="0"
       style="fill:none" />
    <g
       id="g74-6-4-0-5-8">
      <path
         id="path76-1-9-8-0-9"
         class="cls-2"
         d="m 36.96146,4062.2685 c 2.546372,-9.0695 -4.839327,-11.8338 -12.607083,-11.8338 -7.871231,0 -16.2115679,2.4509 -18.5229842,11.3647 -0.8604917,4.0663 0.2773619,7.5072 3.7270374,9.175 7.4193808,3.5973 15.3695408,2.5022 14.2840338,7.6111 -0.530578,2.5022 -3.866427,3.7536 -6.273409,3.7536 -3.753617,0 -5.942484,-1.9297 -5.143673,-5.4746 H 2.0000648 c -2.01559119,10.2176 5.1611225,12.7814 13.9188192,12.7814 8.704333,0 17.323654,-3.7619 19.009534,-11.6869 2.154982,-10.1652 -6.880683,-10.791 -12.84995,-12.4063 -2.606632,-0.7304 -5.751962,-1.6163 -5.169035,-4.3797 0.399304,-1.8763 2.814403,-3.4404 5.21205,-3.4404 1.773126,0 3.041038,0.4169 3.761933,1.1993 0.773449,0.7817 1.008001,1.8765 0.652522,3.3361 z m 30.15737,26.5869 1.555823,-7.2976 H 50.429235 l 1.693998,-7.9758 h 16.785972 l 1.546491,-7.2987 H 53.669723 l 1.649969,-7.7676 H 73.56633 l 1.554808,-7.2975 H 46.448981 l -8.001292,37.6376 z m 5.891357,0 h 9.382826 l 6.126102,-28.829 h 0.103277 l 6.647354,28.829 h 14.439244 l 8.00231,-37.6376 h -9.38283 l -5.9437,27.9414 -0.12174,0.1045 -6.655057,-28.0465 H 81.011271 Z m 50.982853,0 4.01394,-7.3509 h 15.27416 l 0.93823,7.3509 h 11.78168 l -6.85513,-37.6376 h -12.71989 l -22.85851,37.6376 z m 8.21941,-14.6492 8.4365,-15.6387 h 0.15665 l 1.46776,15.6387 z m 38.17693,14.6492 8.0023,-37.6376 h -10.42673 l -8.00111,37.6376 z"
         inkscape:connector-curvature="0"
         style="fill:#005caa;stroke-width:0.02028983" />
    </g>
    <path
       id="path78-5-8-5-3-2-6"
       class="cls-1"
       d="m 655,5777.81 h 539.78 V 5833 H 655 Z"
       transform="translate(-654.96,-3453.48)"
       inkscape:connector-curvature="0"
       style="fill:none" />
    <path
       id="path80-4-6-9-0-8-0"
       class="cls-1"
       d="m 655,5331.28 h 539.78 v 55.14 H 655 Z"
       transform="translate(-654.96,-3453.48)"
       inkscape:connector-curvature="0"
       style="fill:none" />
    <path
       id="path82-2-7-1-3-7-8"
       class="cls-1"
       d="m 655,4884.81 h 539.78 V 4940 H 655 Z"
       transform="translate(-654.96,-3453.48)"
       inkscape:connector-curvature="0"
       style="fill:none" />
    <path
       id="path84-3-4-3-1-5-9"
       class="cls-1"
       d="m 655,6224.28 h 539.78 v 55.15 H 655 Z"
       transform="translate(-654.96,-3453.48)"
       inkscape:connector-curvature="0"
       style="fill:none" />
    <path
       id="path86-5-3-4-9-4-6"
       class="cls-1"
       d="m 655,6670.76 h 539.78 v 55.14 H 655 Z"
       transform="translate(-654.96,-3453.48)"
       inkscape:connector-curvature="0"
       style="fill:none" />
    <path
       id="path78-5-8-5-3-2-6-4"
       class="cls-1"
       d="m 10416,5777.81 h 539.78 V 5833 H 10416 Z"
       transform="translate(-654.96,-3453.48)"
       inkscape:connector-curvature="0"
       style="fill:none" />
    <path
       id="path80-4-6-9-0-8-0-2"
       class="cls-1"
       d="m 10416,5331.28 h 539.78 v 55.14 H 10416 Z"
       transform="translate(-654.96,-3453.48)"
       inkscape:connector-curvature="0"
       style="fill:none" />
    <path
       id="path82-2-7-1-3-7-8-3"
       class="cls-1"
       d="m 10416,4884.81 h 539.78 V 4940 H 10416 Z"
       transform="translate(-654.96,-3453.48)"
       inkscape:connector-curvature="0"
       style="fill:none" />
    <path
       id="path84-3-4-3-1-5-9-7"
       class="cls-1"
       d="m 10416,6224.28 h 539.78 v 55.15 H 10416 Z"
       transform="translate(-654.96,-3453.48)"
       inkscape:connector-curvature="0"
       style="fill:none" />
    <path
       id="path86-5-3-4-9-4-6-3"
       class="cls-1"
       d="m 10416,6670.76 h 539.78 v 55.14 H 10416 Z"
       transform="translate(-654.96,-3453.48)"
       inkscape:connector-curvature="0"
       style="fill:none" />
    <rect
       id="rect246-1-2-6"
       class="cls-1"
       x="13860.62"
       width="15953.94"
       height="4090.0601"
       y="0"
       style="fill:none" />
    <g
       id="g74-6-4-0-5-8-8">
      <path
         id="path76-1-9-8-0-9-7"
         class="cls-1"
         d="m 18442,4905.25 c 194.37,-692.39 -369.42,-903.33 -962.36,-903.33 -600.84,0 -1237.57,187.1 -1414,867.52 -65.67,310.39 21.19,573 284.51,700.37 566.36,274.58 1173.22,191 1090.35,581 -40.51,191 -295.15,286.55 -478.88,286.55 -286.54,0 -453.62,-147.31 -392.64,-417.9 h -795.82 c -153.87,780 394,975.66 1062.52,975.66 664.47,0 1322.38,-287.17 1451.07,-892.08 164.5,-776 -525.23,-823.74 -980.88,-947 -199,-55.75 -439.08,-123.38 -394.59,-334.32 30.49,-143.23 214.84,-262.61 397.87,-262.61 135.34,0 232.12,31.81 287.16,91.55 59,59.65 76.94,143.23 49.81,254.64 z m 2302,2029.49 118.76,-557.14 h -1392.68 l 129.31,-608.81 h 1281.35 l 118.06,-557.14 h -1281.35 l 125.94,-592.94 h 1392.85 l 118.68,-557.05 h -2188.67 l -610.76,2873.08 z m 449.72,0 H 21910 l 467.62,-2200.64 h 7.89 l 507.41,2200.64 h 1102.23 L 24606,4061.66 h -716.24 l -453.7,2132.92 -9.31,8 -508,-2140.89 h -1114.2 z m 3891.72,0 306.4,-561.13 h 1166 l 71.62,561.13 h 899.34 l -523.28,-2873.08 h -971 l -1744.83,2873.08 z m 627.43,-1118.27 644,-1193.78 h 12 l 112,1193.78 z M 28627.08,6934.74 29238,4061.66 h -795.92 l -610.76,2873.08 z"
         transform="translate(-654.96,-3453.48)"
         inkscape:connector-curvature="0"
         style="fill:none" />
    </g>
    <path
       id="path78-5-8-5-3-2-6-6"
       class="cls-1"
       d="m 14515.59,5455.85 h 836 v 85.4 h -836 z"
       transform="translate(-654.96,-3453.48)"
       inkscape:connector-curvature="0"
       style="fill:none" />
    <path
       id="path80-4-6-9-0-8-0-3"
       class="cls-1"
       d="m 14515.59,4764.26 h 836 v 85.41 h -836 z"
       transform="translate(-654.96,-3453.48)"
       inkscape:connector-curvature="0"
       style="fill:none" />
    <path
       id="path82-2-7-1-3-7-8-9"
       class="cls-1"
       d="m 14515.59,4072.76 h 836 v 85.41 h -836 z"
       transform="translate(-654.96,-3453.48)"
       inkscape:connector-curvature="0"
       style="fill:none" />
    <path
       id="path84-3-4-3-1-5-9-5"
       class="cls-1"
       d="m 14515.59,6147.35 h 836 v 85.4 h -836 z"
       transform="translate(-654.96,-3453.48)"
       inkscape:connector-curvature="0"
       style="fill:none" />
    <path
       id="path86-5-3-4-9-4-6-9"
       class="cls-1"
       d="m 14515.59,6838.85 h 836 v 85.4 h -836 z"
       transform="translate(-654.96,-3453.48)"
       inkscape:connector-curvature="0"
       style="fill:none" />
    <path
       id="path78-5-8-5-3-2-6-4-7"
       class="cls-1"
       d="m 29633.52,5455.85 h 836 v 85.4 h -836 z"
       transform="translate(-654.96,-3453.48)"
       inkscape:connector-curvature="0"
       style="fill:none" />
    <path
       id="path80-4-6-9-0-8-0-2-1"
       class="cls-1"
       d="m 29633.52,4764.26 h 836 v 85.41 h -836 z"
       transform="translate(-654.96,-3453.48)"
       inkscape:connector-curvature="0"
       style="fill:none" />
    <path
       id="path82-2-7-1-3-7-8-3-3"
       class="cls-1"
       d="m 29633.52,4072.76 h 836 v 85.41 h -836 z"
       transform="translate(-654.96,-3453.48)"
       inkscape:connector-curvature="0"
       style="fill:none" />
    <path
       id="path84-3-4-3-1-5-9-7-2"
       class="cls-1"
       d="m 29633.52,6147.35 h 836 v 85.4 h -836 z"
       transform="translate(-654.96,-3453.48)"
       inkscape:connector-curvature="0"
       style="fill:none" />
    <path
       id="path86-5-3-4-9-4-6-3-0"
       class="cls-1"
       d="m 29633.52,6838.85 h 836 v 85.4 h -836 z"
       transform="translate(-654.96,-3453.48)"
       inkscape:connector-curvature="0"
       style="fill:none" />
  </g>
</svg>
