<?xml version="1.0" encoding="UTF-8" standalone="no"?>
<!-- Generator: Adobe Illustrator 22.0.1, SVG Export Plug-In . SVG Version: 6.00 Build 0)  -->

<svg
   xmlns:dc="http://purl.org/dc/elements/1.1/"
   xmlns:cc="http://creativecommons.org/ns#"
   xmlns:rdf="http://www.w3.org/1999/02/22-rdf-syntax-ns#"
   xmlns:svg="http://www.w3.org/2000/svg"
   xmlns="http://www.w3.org/2000/svg"
   xmlns:sodipodi="http://sodipodi.sourceforge.net/DTD/sodipodi-0.dtd"
   xmlns:inkscape="http://www.inkscape.org/namespaces/inkscape"
   version="1.1"
   x="0px"
   y="0px"
   viewBox="0 0 160 86"
   xml:space="preserve"
   id="svg19"
   sodipodi:docname="senailab - Copia.svg"
   inkscape:version="0.92.1 r15371"
   width="160"
   height="86"><metadata
     id="metadata25"><rdf:RDF><cc:Work
         rdf:about=""><dc:format>image/svg+xml</dc:format><dc:type
           rdf:resource="http://purl.org/dc/dcmitype/StillImage" /><dc:title></dc:title></cc:Work></rdf:RDF></metadata><defs
     id="defs23" /><sodipodi:namedview
     pagecolor="#ffffff"
     bordercolor="#666666"
     borderopacity="1"
     objecttolerance="10"
     gridtolerance="10"
     guidetolerance="10"
     inkscape:pageopacity="0"
     inkscape:pageshadow="2"
     inkscape:window-width="1559"
     inkscape:window-height="828"
     id="namedview21"
     showgrid="false"
     inkscape:zoom="3.9075077"
     inkscape:cx="50.135625"
     inkscape:cy="33.291774"
     inkscape:window-x="11"
     inkscape:window-y="0"
     inkscape:window-maximized="0"
     inkscape:current-layer="Camada_3" /><style
     type="text/css"
     id="style2">
	.st0{fill:#005CAA;}
	.st1{fill:none;stroke:#FF0000;stroke-width:9.5;stroke-miterlimit:10;}
	.st2{fill:none;stroke:#FF0000;stroke-miterlimit:10;}
</style><g
     id="Camada_1"
     transform="translate(0,-24)"><g
       id="g74-6-4-0-5-8" /></g><g
     id="Camada_3"
     transform="translate(0,-24)"><line
       class="st1"
       x1="5.7014551"
       y1="109.70444"
       x2="5.7014551"
       y2="24.527567"
       id="line10"
       style="fill:none;stroke:#e49f3b;stroke-width:9.40907097;stroke-miterlimit:10;stroke-opacity:1" /><path
       class="st1"
       d="M 33.433455,49.288281 H 71.06974 c 0,0 8.913856,0 8.913856,9.904286 0,9.904286 0,37.636284 0,37.636284 0,0 0,7.923449 -6.932999,7.923449 -6.933001,0 -38.626714,0 -38.626714,0 0,0 -6.932999,-0.99044 -6.932999,-7.923449 0,-6.932999 0,-14.856428 0,-14.856428 0,0 -0.990429,-8.913856 9.904285,-8.913856 10.894714,0 35.655428,0 35.655428,0"
       id="path12"
       style="fill:none;stroke:#e49f3b;stroke-width:9.40907097;stroke-miterlimit:10;stroke-opacity:1"
       inkscape:connector-curvature="0" /><path
       class="st2"
       d="M 5.7014556,66.125566"
       id="path14"
       inkscape:connector-curvature="0"
       style="fill:none;stroke:#ff0000;stroke-width:0.99042857;stroke-miterlimit:10" /><path
       class="st1"
       d="m 100.7826,24.527568 0.99043,71.310855 c 0,0 -0.99043,8.913877 7.92342,8.913877 8.91386,0 36.64586,0 36.64586,0 0,0 7.92344,0.99042 7.92344,-7.923449 0,-8.913856 0,-47.54057 0,-47.54057 0,0 -0.99044,-7.923428 -6.93301,-2.971285 -5.94257,4.952143 -44.56929,33.67457 -44.56929,33.67457"
       id="path16"
       style="fill:none;stroke:#e49f3b;stroke-width:9.40907097;stroke-miterlimit:10;stroke-opacity:1"
       inkscape:connector-curvature="0" /></g></svg>